<svg viewBox="-75 1 511 511.99902" xmlns="http://www.w3.org/2000/svg"><g fill-rule="evenodd"><path d="m310.5 180c0 71.796875-58.203125 130-130 130s-130-58.203125-130-130 58.203125-130 130-130 130 58.203125 130 130zm-300 0c0 155.832031 140.113281 311.972656 170 322 29.886719-10.027344 170-166.164062 170-322 0-93.890625-76.109375-170-170-170-93.886719 0-170 76.109375-170 170zm0 0" fill="#fd4848"/><path d="m204.847656 52.277344c-7.886718-1.496094-16.027344-2.277344-24.347656-2.277344-17.847656 0-34.855469 3.597656-50.335938 10.105469l-3.429687 22.914062-9.816406 65.589844 57.953125 15.527344-25.429688 94.914062 94.636719-121.382812-57.953125-15.527344 14.347656-53.550781zm0 0" fill="#faac3a"/><path d="m174.875 164.136719-57.957031-15.527344 9.816406-65.585937 3.429687-22.917969c-46.800781 19.671875-79.664062 65.945312-79.664062 119.894531 0 71.796875 58.203125 130 130 130s130-58.203125 130-130c0-63.476562-45.492188-116.324219-105.652344-127.722656l-4.371094 16.316406-14.347656 53.546875 57.953125 15.53125-94.640625 121.378906zm0 0" fill="#a6a6a6"/></g><path d="m289.265625 62.75c1.933594 1.824219 4.398437 2.726562 6.859375 2.726562 2.65625 0 5.308594-1.050781 7.277344-3.136718 3.789062-4.019532 3.605468-10.347656-.414063-14.136719l-.226562-.214844c-4.058594-3.75-10.386719-3.5-14.132813.554688-3.75 4.054687-3.5 10.382812.554688 14.132812zm0 0"/><path d="m94.898438 393.625c-27.785157-42.1875-74.398438-126.035156-74.398438-213.625 0-88.226562 71.773438-160 160-160 30.882812 0 60.851562 8.8125 86.664062 25.480469 4.640626 2.996093 10.828126 1.664062 13.824219-2.976563 2.996094-4.640625 1.664063-10.832031-2.976562-13.828125-29.054688-18.757812-62.773438-28.675781-97.511719-28.675781-99.25 0-180 80.746094-180 180 0 37.886719 8.003906 78.359375 23.796875 120.296875 13.121094 34.851563 31.253906 69.953125 53.894531 104.328125 1.125 1.707031 2.261719 3.410156 3.402344 5.105469 1.929688 2.867187 5.085938 4.414062 8.304688 4.414062 1.917968 0 3.863281-.550781 5.574218-1.703125 4.582032-3.085937 5.796875-9.300781 2.710938-13.882812-1.101563-1.636719-2.199219-3.285156-3.285156-4.933594zm0 0"/><path d="m329.921875 79.601562c-3.085937-4.582031-9.300781-5.792968-13.882813-2.710937-4.582031 3.085937-5.792968 9.300781-2.710937 13.878906 17.777344 26.40625 27.171875 57.261719 27.171875 89.230469 0 81.777344-39.253906 159.464844-72.183594 210.234375-35.917968 55.375-73.433594 92.289063-87.785156 100.730469-7.128906-4.253906-21.632812-16.375-41.175781-38.664063-3.644531-4.152343-9.960938-4.566406-14.113281-.925781-4.152344 3.640625-4.566407 9.960938-.925782 14.113281 21.941406 25.023438 41.757813 42.21875 53 45.992188 1.035156.34375 2.109375.519531 3.183594.519531s2.148438-.175781 3.179688-.519531c18.339843-6.152344 62.332031-50.097657 101.417968-110.363281 34.398438-53.035157 75.402344-134.449219 75.402344-221.117188 0-35.964844-10.574219-70.679688-30.578125-100.398438zm0 0"/><path d="m121.578125 430.796875-.183594-.234375c-3.359375-4.386719-9.636719-5.214844-14.019531-1.855469-4.382812 3.355469-5.214844 9.632813-1.859375 14.019531l.246094.316407c1.96875 2.542969 4.925781 3.878906 7.914062 3.878906 2.136719 0 4.292969-.6875 6.113281-2.097656 4.371094-3.378907 5.167969-9.660157 1.789063-14.027344zm0 0"/><path d="m207.125 42.550781c-.292969-.070312-.589844-.128906-.882812-.167969-8.347657-1.558593-16.949219-2.382812-25.742188-2.382812-18.902344 0-36.941406 3.773438-53.40625 10.59375-.535156.175781-1.054688.390625-1.550781.652344-49.957031 21.402344-85.042969 71.054687-85.042969 128.753906 0 77.195312 62.804688 140 140 140s140-62.804688 140-140c0-68.09375-48.871094-124.980469-113.375-137.449219zm-14.855469 18.027344-15.800781 58.976563c-1.429688 5.332031 1.734375 10.816406 7.070312 12.246093l43.375 11.621094-55.0625 70.617187 12.679688-47.3125c.6875-2.5625.328125-5.292968-1-7.589843-1.324219-2.296875-3.507812-3.972657-6.070312-4.65625l-49.332032-13.222657 11.0625-73.929687c12.886719-4.738281 26.800782-7.328125 41.308594-7.328125 3.972656 0 7.894531.199219 11.769531.578125zm-11.769531 239.421875c-66.167969 0-120-53.832031-120-120 0-43.023438 22.761719-80.824219 56.875-102.011719l-10.347656 69.140625c-.753906 5.027344 2.390625 9.820313 7.300781 11.140625l48.296875 12.9375-22.84375 85.253907c-1.230469 4.59375.945312 9.421874 5.199219 11.539062 1.425781.710938 2.949219 1.050781 4.453125 1.050781 3.003906 0 5.945312-1.351562 7.894531-3.851562l94.640625-121.382813c2.0625-2.644531 2.660156-6.144531 1.59375-9.324218-1.066406-3.179688-3.652344-5.613282-6.894531-6.480469l-48.292969-12.941407 13.628906-50.867187c50.933594 13.875 88.496094 60.527344 88.496094 115.796875 0 66.167969-53.832031 120-120 120zm0 0"/></svg>